<svg width="44" height="15" viewBox="0 0 44 15" fill="none" xmlns="http://www.w3.org/2000/svg">
<path d="M6.56996 2.59557C6.46436 2.55834 6.34108 2.52803 6.20011 2.50304C6.05914 2.47858 5.91817 2.46581 5.7772 2.46581C5.50688 2.46581 5.28962 2.51527 5.12541 2.61418C4.9612 2.71309 4.83185 2.8455 4.73787 3.01247C4.64389 3.17945 4.57922 3.36823 4.54385 3.57828C4.50848 3.78833 4.4913 3.99837 4.4913 4.20842V5.1353H6.44668V7.08795H4.4913V14.3673H1.60321V7.08795H0V5.1353H1.60321V4.24512C1.60321 3.67665 1.66182 3.13584 1.77904 2.62322C1.89626 2.11059 2.09887 1.65912 2.38687 1.26987C2.67437 0.88061 3.06191 0.571652 3.54949 0.342991C4.03606 0.11433 4.6444 0 5.37248 0C5.61905 0 5.86259 0.0159531 6.1036 0.0462639C6.34411 0.0771066 6.5644 0.123371 6.76449 0.185056L6.56996 2.59557ZM7.64466 14.3673V0.352031L10.5858 0.969947V14.3668L7.64466 14.3673ZM16.5575 4.23288C13.8983 4.23288 11.7429 6.50141 11.7429 9.29958C11.7429 12.0983 13.8983 14.3668 16.5575 14.3668C19.2162 14.3668 21.3722 12.0983 21.3722 9.29958C21.3717 6.50141 19.2162 4.23288 16.5575 4.23288ZM16.5575 11.9276C15.1787 11.9276 14.061 10.7513 14.061 9.30012C14.061 7.84945 15.1787 6.67264 16.5575 6.67264C17.9359 6.67264 19.0541 7.84892 19.0541 9.30012C19.0535 10.7508 17.9359 11.9276 16.5575 11.9276ZM41.3878 5.1353L39.0686 11.123H39.0161L37.2749 6.17544C37.2749 6.17544 37.2203 5.9973 37.1339 5.94146C37.0349 5.87712 36.8803 5.87658 36.8803 5.87658H34.2752C34.2752 5.87658 34.1104 5.86967 34.0155 5.9606C33.9275 6.04569 33.8881 6.17544 33.8881 6.17544L32.4456 10.9747H32.4102L30.9222 6.19086C30.9222 6.19086 30.8677 6.0308 30.7666 5.96326C30.6049 5.85478 30.3947 5.87658 30.3947 5.87658H28.2342C28.2342 5.87658 28.0432 5.86595 27.9331 5.96326C27.8194 6.06324 27.7886 6.19086 27.7886 6.19086L26.3152 10.9747H26.2627L24.5129 5.56763L21.3363 4.76412L24.6595 14.3668H27.5657L29.2564 9.2379H29.2917L30.9015 13.9627C30.9015 13.9627 30.9308 14.1015 31.0597 14.1966C31.2127 14.3099 31.4047 14.3051 31.4047 14.3051H33.5375C33.5375 14.3051 33.7532 14.3147 33.8725 14.2317C33.9877 14.1514 34.0407 13.9467 34.0407 13.9467L35.5676 9.2379L37.43 14.3668H40.5475L44 5.13477L41.3878 5.1353Z" fill="white"/>
</svg>
