<svg width="49" height="42" viewBox="0 0 49 42" fill="none" xmlns="http://www.w3.org/2000/svg">
<g clip-path="url(#clip0_1677_20104)">
<path d="M11.0999 0.0654871C11.0322 -0.325652 8.18291 1.02455 5.71712 3.07969C3.98678 2.71728 1.63378 2.19576 1.48489 2.50072C1.33599 2.80568 3.12951 3.4642 4.11311 4.72381C2.30833 7.07064 0.914127 10.6108 1.28185 10.8119C1.4894 10.9246 2.82043 8.10926 5.7284 6.17124C7.14064 6.70381 8.66118 8.01424 9.0447 7.93911C9.42822 7.86397 8.11523 5.66519 7.25796 4.13378C8.80556 1.8665 11.1518 0.366024 11.0999 0.0654871ZM5.43061 2.4963C5.86376 2.53387 6.26533 2.12726 6.33301 1.59027C6.40069 1.05328 6.09162 0.587007 5.65621 0.54944C5.22081 0.511873 4.8215 0.920691 4.75382 1.45768C4.68614 1.99467 4.99746 2.46978 5.43061 2.50514V2.4963Z" fill="#ED7E24"/>
<path d="M22.9542 2.58378C22.6113 2.19043 18.7559 2.98376 16.2224 4.31408C14.0048 3.90968 11.3562 3.45003 11.2186 3.89642C11.081 4.3428 12.8271 4.49307 14.0679 5.75709C10.5283 8.45529 8.08054 11.5424 8.65356 11.6573C9.35292 11.7966 11.6473 8.70721 15.7351 7.27966C18.422 8.5459 19.9222 11.2441 20.5629 10.738C20.9555 10.4265 19.4349 7.70174 18.3881 5.65544C20.3599 3.38153 23.4573 3.16496 22.9542 2.58378ZM15.8908 3.80361C16.3239 3.83012 16.7119 3.41468 16.7548 2.87548C16.7977 2.33628 16.4841 1.87884 16.0487 1.85454C15.6133 1.83023 15.2275 2.24347 15.1824 2.78045C15.1373 3.31744 15.4554 3.76825 15.8908 3.80361Z" fill="white"/>
<path d="M28.9625 5.99329C30.253 4.34697 32.2089 3.62877 32.2427 3.17134C32.2653 2.84207 29.6145 3.46303 26.7833 5.52259C23.8933 5.45409 21.044 7.48271 21.0508 7.80535C21.0666 8.41084 22.4044 6.88827 25.0326 7.28825C23.8166 9.20638 23.3835 11.909 23.7083 11.9974C24.0919 12.099 25.2063 9.11356 27.5277 7.73021C33.0639 8.13903 35.2906 11.6924 35.5139 11.0206C35.6899 10.4881 33.6618 7.64182 28.9625 5.99329ZM26.4358 5.03422C26.869 5.06516 27.2638 4.65413 27.3157 4.11714C27.3676 3.58016 27.0562 3.11609 26.6231 3.08736C26.1899 3.05864 25.7951 3.46746 25.7433 4.00444C25.6914 4.54143 26.0027 5.00328 26.4358 5.03422Z" fill="#ED7E24"/>
<path d="M47.1171 11.9669C45.3461 11.989 44.0061 13.2928 43.0766 15.0607C42.0407 14.6617 40.9341 14.4686 39.8212 14.4927C35.6905 14.4927 33.2473 16.9722 33.2473 19.098C33.2473 19.8361 33.8812 20.3112 34.664 20.3112C34.9145 20.3244 35.1629 20.2603 35.3742 20.1279C35.5855 19.9955 35.749 19.8014 35.8417 19.5731C36.6561 18.0064 37.2291 17.0009 39.8212 17.0009C42.4134 17.0009 43.3473 18.0638 43.3473 20.1897V21.0736C43.3473 21.0736 41.1477 20.6316 39.8506 20.6316C35.7898 20.6316 32.9766 22.1984 32.9766 25.6524C32.9766 28.1627 34.8761 29.9947 37.9217 29.9947C40.7259 29.9947 41.899 28.9318 41.899 28.0058C41.899 27.3871 41.5087 26.7971 40.8454 26.7971C40.4857 26.8175 40.1354 26.918 39.8212 27.091C39.2208 27.3427 38.5748 27.4734 37.9217 27.4755C36.6561 27.4755 35.8913 26.7971 35.8913 25.6435C35.8913 24.048 37.0689 23.0757 39.7806 23.0757C40.9791 23.0996 42.1717 23.2478 43.3383 23.5177V26.3529C43.3383 28.302 43.9677 29.8091 45.8673 29.8091C46.7426 29.8091 47.3765 29.3406 47.3765 28.5981C47.3765 27.2147 46.2643 27.681 46.2643 25.6723V20.1919C46.2643 18.2517 45.5875 16.7269 44.279 15.7457C45.1673 15.2792 46.1636 15.0455 47.1712 15.0673C49.4904 15.1314 49.7453 11.9448 47.1171 11.9669Z" fill="#ED7E24"/>
<path d="M30.621 11.9669C28.85 11.989 27.5077 13.2928 26.5805 15.0607C25.5445 14.6619 24.438 14.4688 23.3251 14.4927C19.1944 14.4927 16.7512 16.9722 16.7512 19.098C16.7512 19.8361 17.3829 20.3112 18.1679 20.3112C18.4184 20.3244 18.6668 20.2603 18.8781 20.1279C19.0894 19.9955 19.2529 19.8014 19.3456 19.5731C20.1577 18.0064 20.7307 17.0009 23.3251 17.0009C25.9195 17.0009 26.8512 18.0638 26.8512 20.1897V21.0736C26.8512 21.0736 24.6516 20.6316 23.3545 20.6316C19.2937 20.6316 16.4805 22.1984 16.4805 25.6524C16.4805 28.1627 18.38 29.9947 21.4256 29.9947C24.2275 29.9947 25.4029 28.9318 25.4029 28.0058C25.4029 27.3871 25.0126 26.7971 24.3493 26.7971C23.9896 26.8175 23.6393 26.918 23.3251 27.091C22.7246 27.3424 22.0787 27.4731 21.4256 27.4755C20.1577 27.4755 19.3952 26.7971 19.3952 25.6435C19.3952 24.048 20.5706 23.0757 23.2845 23.0757C24.483 23.0996 25.6756 23.2478 26.8422 23.5177V26.3529C26.8422 28.302 27.4716 29.8091 29.3712 29.8091C30.2465 29.8091 30.8782 29.3406 30.8782 28.5981C30.8782 27.2147 29.766 27.681 29.766 25.6723V20.1919C29.766 18.2517 29.0892 16.7269 27.783 15.7457C28.6711 15.2789 29.6675 15.0452 30.6751 15.0673C32.992 15.1314 33.2492 11.9448 30.621 11.9669Z" fill="#ED7E24"/>
<path d="M14.1405 11.9669C12.3696 11.989 11.0273 13.2928 10.1 15.0607C9.06412 14.6617 7.9575 14.4686 6.84466 14.4927C2.71395 14.4927 0.270718 16.9722 0.270718 19.098C0.270718 19.8361 0.904653 20.3112 1.68748 20.3112C1.93795 20.3244 2.18633 20.2603 2.39761 20.1279C2.60889 19.9955 2.77241 19.8014 2.8651 19.5731C3.67726 18.0064 4.25028 17.0009 6.84466 17.0009C9.43904 17.0009 10.3708 18.0638 10.3708 20.1897V21.0736C10.3708 21.0736 8.17118 20.6316 6.87399 20.6316C2.80193 20.6316 0 22.1984 0 25.6524C0 28.1627 1.89954 29.9947 4.94512 29.9947C7.74706 29.9947 8.92243 28.9318 8.92243 28.0058C8.92243 27.3871 8.53214 26.7971 7.86888 26.7971C7.50911 26.8175 7.15883 26.918 6.84466 27.091C6.24413 27.3424 5.59819 27.4731 4.94512 27.4755C3.67726 27.4755 2.91473 26.7971 2.91473 25.6435C2.91473 24.048 4.0901 23.0757 6.80405 23.0757C8.00255 23.0996 9.1951 23.2478 10.3617 23.5177V26.3529C10.3617 28.302 10.9912 29.8091 12.8907 29.8091C13.766 29.8091 14.3977 29.3406 14.3977 28.5981C14.3977 27.2147 13.2855 27.681 13.2855 25.6723V20.1919C13.2855 18.2517 12.6087 16.7269 11.3025 15.7457C12.1906 15.2789 13.187 15.0452 14.1947 15.0673C16.5116 15.1314 16.7687 11.9448 14.1405 11.9669Z" fill="#ED7E24"/>
<path d="M2.79188 35.3166V34.6669C2.79188 34.3619 2.52116 34.2051 2.19856 34.2051C1.87595 34.2051 1.70224 34.3509 1.70224 34.4968H1.77894C1.89517 34.4966 2.00696 34.5405 2.09102 34.6191C2.17507 34.6977 2.22491 34.8051 2.23014 34.9188C2.23014 35.036 2.18261 35.1485 2.09799 35.2313C2.01337 35.3142 1.89861 35.3608 1.77894 35.3608C1.46536 35.3608 1.29391 35.1398 1.29391 34.8128V34.6492C1.29391 34.1807 1.67517 33.8868 2.1963 33.8868C2.41554 33.8842 2.62846 33.9587 2.79639 34.0968V33.8139C2.78544 33.6763 2.71921 33.5485 2.61221 33.4586C2.50522 33.3687 2.36619 33.324 2.22563 33.3344C1.95491 33.3344 1.6481 33.4802 1.6481 33.7631H1.25781C1.25781 33.2769 1.75187 33.0117 2.22563 33.0117C2.39715 33.0119 2.56655 33.0489 2.72194 33.12L2.94754 32.877H3.45063L2.99943 33.341C3.06337 33.4025 3.11377 33.4762 3.14753 33.5576C3.18128 33.6389 3.19768 33.7261 3.1957 33.8139V35.3276L2.79188 35.3166ZM1.78571 34.7509C1.76302 34.7506 1.7405 34.7548 1.71952 34.7633C1.69855 34.7718 1.67956 34.7844 1.66373 34.8003C1.64789 34.8162 1.63554 34.8351 1.62742 34.8559C1.6193 34.8767 1.61559 34.8988 1.61651 34.921C1.6213 34.9614 1.64106 34.9987 1.67205 35.0257C1.70304 35.0527 1.74309 35.0677 1.78458 35.0677C1.82608 35.0677 1.86613 35.0527 1.89712 35.0257C1.92811 34.9987 1.94787 34.9614 1.95266 34.921C1.9539 34.8989 1.95048 34.8768 1.94262 34.8561C1.93476 34.8353 1.92262 34.8164 1.90696 34.8004C1.8913 34.7844 1.87245 34.7718 1.85159 34.7633C1.83073 34.7548 1.80831 34.7505 1.78571 34.7509Z" fill="white"/>
<path d="M3.52865 32.2757C3.52954 32.3699 3.50186 32.4622 3.44911 32.5409C3.39636 32.6196 3.32092 32.6812 3.23237 32.7178C3.14383 32.7545 3.04616 32.7645 2.95178 32.7467C2.8574 32.7288 2.77055 32.6839 2.70227 32.6177C2.63398 32.5514 2.58733 32.4668 2.56825 32.3745C2.54917 32.2822 2.5585 32.1864 2.59508 32.0994C2.63165 32.0123 2.69382 31.9378 2.77368 31.8854C2.85353 31.833 2.94749 31.805 3.04361 31.805C3.1076 31.8026 3.17141 31.813 3.23109 31.8358C3.29077 31.8585 3.34504 31.893 3.39053 31.9372C3.43602 31.9813 3.47175 32.0341 3.49551 32.0924C3.51927 32.1506 3.53055 32.213 3.52865 32.2757ZM2.83606 32.2757C2.83606 32.3297 2.85793 32.3814 2.89685 32.4195C2.93577 32.4576 2.98857 32.479 3.04361 32.479C3.09866 32.479 3.15145 32.4576 3.19037 32.4195C3.2293 32.3814 3.25116 32.3297 3.25116 32.2757C3.25116 32.2218 3.2293 32.1701 3.19037 32.132C3.15145 32.0938 3.09866 32.0724 3.04361 32.0724C2.98857 32.0724 2.93577 32.0938 2.89685 32.132C2.85793 32.1701 2.83606 32.2218 2.83606 32.2757ZM4.792 35.3253V33.8116C4.792 33.4956 4.67018 33.332 4.41074 33.332C4.35116 33.3261 4.29096 33.333 4.23438 33.3522C4.1778 33.3715 4.12621 33.4026 4.08321 33.4435C4.04022 33.4843 4.00687 33.5339 3.98551 33.5887C3.96415 33.6435 3.95528 33.7022 3.95954 33.7607H3.57828C3.57828 33.2746 3.94149 33.0094 4.41525 33.0094C4.96346 33.0094 5.18679 33.2967 5.18679 33.8116V35.3253H4.792Z" fill="white"/>
<path d="M7.86294 34.5212C7.92788 34.5545 7.98284 34.6039 8.0224 34.6643C8.06196 34.7248 8.08475 34.7943 8.08854 34.866C8.09351 34.9305 8.08397 34.9952 8.06059 35.0557C8.03721 35.1162 8.00056 35.171 7.95323 35.2161C7.90589 35.2612 7.84903 35.2955 7.78665 35.3167C7.72427 35.338 7.6579 35.3455 7.59222 35.3389C7.53182 35.3457 7.47062 35.3396 7.4129 35.3208C7.35518 35.3021 7.30234 35.2712 7.25808 35.2304C7.21381 35.1895 7.17919 35.1397 7.15663 35.0844C7.13407 35.0291 7.12412 34.9696 7.12749 34.9102C7.1292 34.8496 7.14565 34.7904 7.17547 34.7373C7.2053 34.6843 7.24763 34.639 7.29894 34.6052C7.14778 34.6121 7.00034 34.6534 6.86835 34.7259C6.73637 34.7984 6.62348 34.9001 6.53868 35.0229L6.50484 35.3168H6.13936V34.1367C6.14398 34.0381 6.15529 33.9399 6.17321 33.8428C6.1409 33.8445 6.10851 33.8445 6.0762 33.8428C5.95959 33.8429 5.84748 33.7988 5.76337 33.7197C5.67925 33.6406 5.62966 33.5327 5.625 33.4185C5.625 33.3013 5.67254 33.1889 5.75715 33.106C5.84177 33.0231 5.95653 32.9766 6.0762 32.9766C6.42136 32.9766 6.52739 33.1975 6.52739 33.5224V34.5632C6.72935 34.3767 6.99442 34.2697 7.27187 34.2627C7.3636 34.2631 7.45478 34.2765 7.54259 34.3025V33.0097H7.94415V34.4262L7.86294 34.5212ZM6.0762 33.2616C6.05402 33.2607 6.03189 33.2643 6.0112 33.2722C5.99051 33.2801 5.97172 33.2921 5.95602 33.3074C5.94033 33.3228 5.92806 33.3412 5.92001 33.3615C5.91196 33.3818 5.9083 33.4034 5.90926 33.4252C5.90833 33.4471 5.91198 33.469 5.91999 33.4895C5.92799 33.5099 5.94018 33.5286 5.95581 33.5443C5.97144 33.5601 5.99017 33.5725 6.01087 33.5809C6.03157 33.5893 6.0538 33.5934 6.0762 33.5931C6.0989 33.5934 6.12144 33.5893 6.1425 33.581C6.16357 33.5727 6.18274 33.5603 6.1989 33.5447C6.21506 33.5291 6.22789 33.5105 6.23665 33.4899C6.2454 33.4694 6.24991 33.4474 6.24991 33.4252C6.24996 33.4027 6.2453 33.3805 6.23621 33.3599C6.22713 33.3393 6.21381 33.3208 6.19709 33.3054C6.18038 33.2901 6.16062 33.2783 6.13904 33.2708C6.11747 33.2632 6.09454 33.2601 6.07169 33.2616H6.0762ZM7.42979 34.8881C7.4265 34.9106 7.42828 34.9336 7.43499 34.9555C7.4417 34.9773 7.45318 34.9974 7.46864 35.0144C7.4841 35.0315 7.50317 35.045 7.52451 35.0541C7.54585 35.0632 7.56896 35.0676 7.59222 35.0671C7.68923 35.0671 7.74788 34.9941 7.74788 34.8881C7.74305 34.8414 7.72626 34.7966 7.69904 34.758C7.67183 34.7193 7.63508 34.6881 7.59222 34.6671C7.54869 34.6872 7.51136 34.7182 7.48403 34.757C7.45669 34.7959 7.44031 34.8411 7.43655 34.8881H7.42979Z" fill="white"/>
<path d="M8.67588 32.5367C8.32054 32.6891 7.93575 32.7645 7.54789 32.7577C7.02224 32.7577 6.87109 32.5809 6.87109 32.3047C6.87128 32.2503 6.88283 32.1966 6.90505 32.1467C6.92726 32.0969 6.95967 32.0521 7.00026 32.015C7.04085 31.978 7.08876 31.9494 7.14104 31.9312C7.19333 31.913 7.24887 31.9055 7.30424 31.9091C7.41355 31.9091 7.51846 31.9513 7.59618 32.0266C7.6739 32.1019 7.71815 32.2042 7.71934 32.3113C7.71965 32.3516 7.71435 32.3917 7.70355 32.4306C8.01976 32.4103 8.32982 32.3355 8.61948 32.2096L8.67588 32.5367ZM7.46442 32.3157C7.46442 32.2723 7.44682 32.2307 7.41552 32.2001C7.38421 32.1694 7.34175 32.1522 7.29747 32.1522C7.2532 32.1522 7.21073 32.1694 7.17943 32.2001C7.14812 32.2307 7.13053 32.2723 7.13053 32.3157C7.13053 32.3591 7.14812 32.4007 7.17943 32.4313C7.21073 32.462 7.2532 32.4792 7.29747 32.4792C7.34175 32.4792 7.38421 32.462 7.41552 32.4313C7.44682 32.4007 7.46442 32.3591 7.46442 32.3157Z" fill="white"/>
<path d="M10.1617 35.3177V33.8946C10.1689 33.8192 10.1591 33.7432 10.133 33.6719C10.107 33.6006 10.0653 33.5358 10.0108 33.4821C9.95638 33.4283 9.89055 33.3869 9.81799 33.3608C9.74543 33.3347 9.66791 33.3246 9.5909 33.3311C9.48566 33.3307 9.38158 33.3527 9.2858 33.3954C9.19002 33.4381 9.10479 33.5006 9.03593 33.5786L9.33823 33.7355V33.9675C9.27679 33.972 9.21936 33.9991 9.1775 34.0433C9.13564 34.0876 9.11246 34.1458 9.11263 34.2062V35.3111H8.70881V34.2062C8.70809 34.1314 8.73028 34.0582 8.77251 33.996C8.81474 33.9337 8.87507 33.8853 8.94568 33.857L8.59375 33.6868V33.488C8.71044 33.3386 8.85926 33.2163 9.02964 33.1296C9.20001 33.0429 9.38778 32.994 9.57961 32.9863C10.1504 32.9863 10.5542 33.2515 10.5542 33.8703V35.2934L10.1617 35.3177Z" fill="white"/>
<path d="M10.9492 33.8219H11.3643L11.7975 35.0528C11.8318 35.0581 11.8669 35.0581 11.9012 35.0528C12.1268 35.0528 12.2351 34.8451 12.2351 34.5291V34.1335C12.2351 34.0252 12.2599 33.8329 12.2599 33.8329C12.2313 33.8418 12.2018 33.8478 12.172 33.8506C12.0554 33.8507 11.9433 33.8066 11.8591 33.7275C11.775 33.6484 11.7254 33.5405 11.7208 33.4263C11.7208 33.3091 11.7683 33.1967 11.8529 33.1138C11.9375 33.0309 12.0523 32.9844 12.172 32.9844C12.5194 32.9844 12.6389 33.2054 12.6389 33.5302V34.5313C12.6389 34.9887 12.3795 35.3334 11.908 35.3334C11.7792 35.3419 11.6502 35.3207 11.5313 35.2716L10.9492 33.8219ZM12.172 33.2694C12.1498 33.2685 12.1276 33.2721 12.107 33.28C12.0863 33.2879 12.0675 33.2999 12.0518 33.3153C12.0361 33.3306 12.0238 33.349 12.0158 33.3693C12.0077 33.3896 12.0041 33.4112 12.005 33.433C12.0041 33.4549 12.0078 33.4768 12.0158 33.4973C12.0238 33.5178 12.0359 33.5364 12.0516 33.5522C12.0672 33.5679 12.0859 33.5803 12.1066 33.5887C12.1273 33.5971 12.1496 33.6012 12.172 33.6009C12.1947 33.6012 12.2172 33.5971 12.2383 33.5888C12.2593 33.5805 12.2785 33.5681 12.2947 33.5525C12.3108 33.5369 12.3237 33.5183 12.3324 33.4978C12.3412 33.4772 12.3457 33.4552 12.3457 33.433C12.3468 33.4096 12.3427 33.3862 12.3338 33.3645C12.3248 33.3428 12.3112 33.3232 12.2939 33.3071C12.2766 33.2909 12.2559 33.2786 12.2333 33.271C12.2107 33.2634 12.1867 33.2606 12.1629 33.2628L12.172 33.2694Z" fill="white"/>
<path d="M14.2154 35.3179V33.8041C14.2154 33.4881 14.0936 33.3246 13.8341 33.3246C13.7745 33.3186 13.7143 33.3255 13.6578 33.3448C13.6012 33.364 13.5496 33.3952 13.5066 33.436C13.4636 33.4769 13.4303 33.5264 13.4089 33.5812C13.3875 33.636 13.3787 33.6948 13.3829 33.7533H13.0039C13.0039 33.2671 13.3671 33.002 13.8386 33.002C14.3868 33.002 14.6124 33.2892 14.6124 33.8041V35.3179H14.2154Z" fill="white"/>
<path d="M17.2714 34.5212C17.3364 34.5545 17.3913 34.6039 17.4309 34.6643C17.4705 34.7248 17.4933 34.7943 17.497 34.866C17.502 34.9305 17.4925 34.9952 17.4691 35.0557C17.4457 35.1162 17.4091 35.171 17.3617 35.2161C17.3144 35.2612 17.2575 35.2955 17.1952 35.3168C17.1328 35.338 17.0664 35.3455 17.0007 35.3389C16.9402 35.3457 16.8789 35.3395 16.8211 35.3208C16.7633 35.3021 16.7103 35.2712 16.6659 35.2304C16.6215 35.1896 16.5866 35.1399 16.5638 35.0846C16.541 35.0293 16.5307 34.9697 16.5337 34.9102C16.5353 34.8494 16.552 34.7898 16.5822 34.7367C16.6125 34.6836 16.6555 34.6385 16.7074 34.6052C16.5562 34.6117 16.4086 34.6529 16.2766 34.7254C16.1446 34.798 16.0317 34.8999 15.9472 35.0229L15.9111 35.3168H15.5456V34.1367C15.5502 34.0381 15.5615 33.9399 15.5795 33.8428C15.5471 33.8445 15.5148 33.8445 15.4824 33.8428C15.3658 33.8429 15.2537 33.7988 15.1696 33.7197C15.0855 33.6406 15.0359 33.5327 15.0312 33.4185C15.0313 33.3013 15.0788 33.1889 15.1634 33.106C15.248 33.0231 15.3628 32.9766 15.4824 32.9766C15.8276 32.9766 15.9336 33.1975 15.9336 33.5224V34.5632C16.135 34.3772 16.3992 34.2703 16.6759 34.2627C16.7676 34.2627 16.8589 34.2761 16.9466 34.3025V33.0097H17.3504V34.4262L17.2714 34.5212ZM15.4847 33.2616C15.4625 33.2607 15.4404 33.2643 15.4197 33.2722C15.399 33.2801 15.3802 33.2921 15.3645 33.3074C15.3488 33.3228 15.3366 33.3412 15.3285 33.3615C15.3205 33.3818 15.3168 33.4034 15.3178 33.4252C15.3165 33.4472 15.3199 33.4692 15.3278 33.4898C15.3357 33.5105 15.3479 33.5293 15.3636 33.5451C15.3793 33.5609 15.3981 33.5733 15.419 33.5815C15.4398 33.5898 15.4622 33.5938 15.4847 33.5931C15.5073 33.5934 15.5297 33.5893 15.5507 33.5809C15.5716 33.5726 15.5906 33.5602 15.6066 33.5446C15.6226 33.5289 15.6352 33.5103 15.6437 33.4898C15.6522 33.4693 15.6565 33.4473 15.6562 33.4252C15.6565 33.4032 15.6522 33.3814 15.6437 33.3612C15.6351 33.3409 15.6224 33.3225 15.6064 33.3072C15.5903 33.2919 15.5713 33.28 15.5503 33.2721C15.5294 33.2643 15.5071 33.2607 15.4847 33.2616ZM16.8383 34.8881C16.8383 34.9941 16.8947 35.0671 17.0007 35.0671C17.1068 35.0671 17.1564 34.9941 17.1564 34.8881C17.1516 34.8414 17.1348 34.7966 17.1075 34.758C17.0803 34.7193 17.0436 34.6881 17.0007 34.6671C16.9572 34.6872 16.9199 34.7182 16.8925 34.7571C16.8652 34.7959 16.8488 34.8411 16.8451 34.8881H16.8383Z" fill="white"/>
<path d="M19.5159 35.3177V33.8946C19.5235 33.8191 19.5141 33.7429 19.4881 33.6715C19.4622 33.6 19.4205 33.535 19.366 33.4812C19.3115 33.4274 19.2455 33.386 19.1727 33.36C19.1 33.3341 19.0223 33.3242 18.9452 33.3311C18.8399 33.3305 18.7357 33.3523 18.6399 33.395C18.544 33.4377 18.4588 33.5004 18.3902 33.5786L18.6902 33.7355V33.9675C18.6312 33.975 18.5771 34.0035 18.538 34.0475C18.499 34.0914 18.4777 34.1479 18.4782 34.2062V35.3111H18.0743V34.2062C18.0736 34.1314 18.0958 34.0582 18.1381 33.996C18.1803 33.9337 18.2406 33.8853 18.3112 33.857L17.957 33.6868V33.488C18.0744 33.3388 18.2237 33.2166 18.3944 33.1299C18.5651 33.0433 18.7531 32.9943 18.9452 32.9863C19.5159 32.9863 19.9197 33.2515 19.9197 33.8703V35.2934L19.5159 35.3177Z" fill="white"/>
<path d="M21.9749 33.8041C21.9749 33.4881 21.7493 33.3246 21.4086 33.3246C21.068 33.3246 20.8379 33.4704 20.8379 33.7533H20.4453C20.4453 33.2671 20.9371 33.002 21.4086 33.002C21.9568 33.002 22.3764 33.2892 22.3764 33.8041V34.6637C22.3764 35.0748 22.0538 35.351 21.4154 35.351C20.7769 35.351 20.513 35.1101 20.513 34.6748V34.3632C20.5089 34.2982 20.5187 34.233 20.5417 34.1719C20.5648 34.1108 20.6006 34.0551 20.6469 34.0083C20.6931 33.9615 20.7489 33.9247 20.8105 33.9002C20.8721 33.8757 20.9383 33.864 21.0048 33.866C21.1201 33.866 21.2307 33.9105 21.3127 33.99C21.3946 34.0694 21.4413 34.1773 21.4425 34.2903C21.4431 34.3442 21.4326 34.3977 21.4117 34.4476C21.3908 34.4975 21.3598 34.5428 21.3206 34.5807C21.2815 34.6187 21.235 34.6485 21.1838 34.6684C21.1326 34.6884 21.0779 34.6981 21.0228 34.6969C20.9812 34.697 20.9399 34.6895 20.901 34.6748V34.7367C20.901 34.9046 21.0386 35.0239 21.4086 35.0239C21.7132 35.0239 21.9681 34.94 21.9681 34.635L21.9749 33.8041ZM21.1717 34.2837C21.1731 34.2627 21.1698 34.2417 21.1622 34.2221C21.1547 34.2025 21.1429 34.1847 21.1278 34.1698C21.1126 34.155 21.0944 34.1435 21.0744 34.1361C21.0544 34.1286 21.0329 34.1255 21.0116 34.1268C20.9898 34.1252 20.968 34.1281 20.9474 34.1354C20.9269 34.1426 20.9082 34.154 20.8924 34.1688C20.8767 34.1836 20.8643 34.2015 20.8561 34.2212C20.8478 34.241 20.8439 34.2623 20.8446 34.2837C20.8437 34.3054 20.8473 34.3271 20.8554 34.3473C20.8634 34.3676 20.8757 34.386 20.8914 34.4014C20.9071 34.4167 20.9259 34.4288 20.9466 34.4366C20.9672 34.4445 20.9894 34.4481 21.0116 34.4472C21.0334 34.4479 21.0551 34.444 21.0753 34.436C21.0955 34.4279 21.1137 34.4158 21.1288 34.4003C21.1439 34.3849 21.1555 34.3666 21.1629 34.3465C21.1703 34.3264 21.1733 34.305 21.1717 34.2837Z" fill="white"/>
<path d="M22.7656 33.8219H23.1807L23.6139 35.0528C23.6483 35.0581 23.6833 35.0581 23.7177 35.0528C23.9432 35.0528 24.0515 34.8451 24.0515 34.529V34.1335C24.0515 34.0252 24.0741 33.8329 24.0741 33.8329C24.0463 33.8419 24.0175 33.8478 23.9884 33.8506C23.8718 33.8507 23.7597 33.8066 23.6755 33.7275C23.5914 33.6484 23.5418 33.5405 23.5372 33.4263C23.5372 33.3091 23.5847 33.1967 23.6693 33.1138C23.7539 33.0309 23.8687 32.9844 23.9884 32.9844C24.3358 32.9844 24.4554 33.2054 24.4554 33.5302V34.5313C24.4554 34.9887 24.1959 35.3334 23.7222 35.3334C23.5941 35.3418 23.4658 35.3206 23.3477 35.2715L22.7656 33.8219ZM23.9884 33.2694C23.9662 33.2685 23.9441 33.2721 23.9234 33.28C23.9027 33.2879 23.8839 33.2999 23.8682 33.3153C23.8525 33.3306 23.8402 33.349 23.8322 33.3693C23.8241 33.3896 23.8205 33.4112 23.8214 33.433C23.8205 33.4549 23.8242 33.4768 23.8322 33.4973C23.8402 33.5178 23.8524 33.5364 23.868 33.5522C23.8836 33.5679 23.9023 33.5803 23.923 33.5887C23.9437 33.5971 23.966 33.6012 23.9884 33.6009C24.011 33.6012 24.0334 33.5971 24.0543 33.5887C24.0753 33.5804 24.0943 33.568 24.1103 33.5524C24.1263 33.5367 24.1389 33.5181 24.1474 33.4976C24.1559 33.4771 24.1601 33.4551 24.1598 33.433C24.1611 33.4103 24.1575 33.3876 24.1493 33.3664C24.141 33.3451 24.1282 33.3259 24.1118 33.3098C24.0954 33.2937 24.0758 33.2813 24.0541 33.2732C24.0324 33.2651 24.0093 33.2615 23.9861 33.2628L23.9884 33.2694Z" fill="white"/>
<path d="M26.827 35.3168V33.6661C26.827 33.4451 26.7526 33.3677 26.545 33.3677C26.2157 33.3677 25.778 33.9268 25.778 34.4727V35.3212H25.3855V34.1412C25.3901 34.0426 25.4014 33.9444 25.4193 33.8473C25.387 33.849 25.3546 33.849 25.3223 33.8473C25.2057 33.8474 25.0936 33.8032 25.0095 33.7241C24.9253 33.645 24.8758 33.5371 24.8711 33.423C24.8711 33.3058 24.9186 33.1934 25.0032 33.1105C25.0879 33.0276 25.2026 32.981 25.3223 32.981C25.3834 32.978 25.4445 32.9872 25.5019 33.0081C25.5593 33.029 25.6117 33.061 25.656 33.1024C25.7003 33.1437 25.7356 33.1935 25.7597 33.2486C25.7838 33.3037 25.7961 33.363 25.7961 33.423C25.786 33.5138 25.764 33.6029 25.7306 33.6882H25.7419C25.8037 33.5079 25.9161 33.3483 26.066 33.2276C26.216 33.1068 26.3976 33.0298 26.5902 33.0053C27.0053 33.0053 27.2309 33.2263 27.2309 33.6484V35.3036L26.827 35.3168ZM25.3223 33.2617C25.3001 33.2607 25.278 33.2643 25.2573 33.2722C25.2366 33.2801 25.2178 33.2921 25.2021 33.3075C25.1864 33.3228 25.1742 33.3413 25.1661 33.3615C25.1581 33.3818 25.1544 33.4035 25.1554 33.4252C25.1544 33.4471 25.1581 33.469 25.1661 33.4895C25.1741 33.51 25.1863 33.5287 25.2019 33.5444C25.2175 33.5601 25.2363 33.5725 25.257 33.5809C25.2777 33.5893 25.2999 33.5935 25.3223 33.5931C25.345 33.5934 25.3675 33.5893 25.3886 33.581C25.4097 33.5727 25.4288 33.5604 25.445 33.5447C25.4612 33.5291 25.474 33.5105 25.4827 33.49C25.4915 33.4695 25.496 33.4474 25.496 33.4252C25.496 33.3818 25.4784 33.3402 25.4471 33.3096C25.4158 33.2789 25.3733 33.2617 25.3291 33.2617H25.3223Z" fill="white"/>
<path d="M26.8795 36.6944V36.2525C26.8296 36.2631 26.7779 36.2628 26.7282 36.2515C26.6784 36.2402 26.6318 36.2182 26.5918 36.1871C26.5518 36.1561 26.5193 36.1167 26.4966 36.0718C26.474 36.027 26.4618 35.9777 26.461 35.9277C26.4601 35.8777 26.4706 35.8281 26.4917 35.7825C26.5128 35.737 26.5439 35.6966 26.5829 35.6642C26.6219 35.6318 26.6677 35.6084 26.717 35.5954C26.7663 35.5825 26.818 35.5805 26.8682 35.5895C26.9187 35.5911 26.9682 35.6028 27.0139 35.6238C27.0595 35.6449 27.1003 35.6749 27.1337 35.7119C27.167 35.7489 27.1923 35.7923 27.208 35.8393C27.2236 35.8862 27.2293 35.9359 27.2247 35.9851V36.6944H26.8795ZM26.8615 35.8105C26.8439 35.8102 26.8265 35.8134 26.8102 35.8198C26.7939 35.8262 26.7791 35.8358 26.7667 35.848C26.7543 35.8602 26.7445 35.8747 26.7379 35.8906C26.7313 35.9066 26.7281 35.9237 26.7284 35.9409C26.7283 35.9577 26.7318 35.9743 26.7386 35.9898C26.7454 36.0053 26.7553 36.0192 26.7677 36.0308C26.7802 36.0424 26.7949 36.0514 26.811 36.0572C26.8272 36.063 26.8443 36.0655 26.8615 36.0646C26.8788 36.0672 26.8964 36.0657 26.913 36.0605C26.9297 36.0552 26.9448 36.0462 26.9573 36.0342C26.9698 36.0222 26.9792 36.0075 26.9849 35.9913C26.9906 35.9751 26.9924 35.9578 26.9901 35.9409C26.991 35.9239 26.9883 35.9069 26.9823 35.891C26.9762 35.875 26.9668 35.8605 26.9548 35.8482C26.9427 35.836 26.9282 35.8263 26.9121 35.8198C26.8961 35.8133 26.8788 35.8102 26.8615 35.8105Z" fill="white"/>
<path d="M29.9538 34.5212C30.0188 34.5545 30.0737 34.6039 30.1133 34.6643C30.1528 34.7248 30.1756 34.7943 30.1794 34.866C30.1844 34.9305 30.1749 34.9952 30.1515 35.0557C30.1281 35.1162 30.0914 35.171 30.0441 35.2161C29.9968 35.2612 29.9399 35.2955 29.8775 35.3168C29.8152 35.338 29.7488 35.3455 29.6831 35.3389C29.6226 35.3457 29.5613 35.3395 29.5035 35.3208C29.4457 35.3021 29.3927 35.2712 29.3483 35.2304C29.3038 35.1896 29.269 35.1399 29.2462 35.0846C29.2234 35.0293 29.2131 34.9697 29.2161 34.9102C29.2177 34.8494 29.2343 34.7898 29.2646 34.7367C29.2949 34.6836 29.3378 34.6385 29.3898 34.6052C29.2386 34.6117 29.091 34.6529 28.959 34.7254C28.8269 34.798 28.7141 34.8999 28.6296 35.0229L28.5935 35.3168H28.237V34.1367C28.2416 34.0381 28.2529 33.9399 28.2709 33.8428C28.2385 33.8444 28.2062 33.8444 28.1739 33.8428C28.0573 33.8429 27.9451 33.7988 27.861 33.7197C27.7769 33.6406 27.7273 33.5327 27.7227 33.4185C27.7227 33.3013 27.7702 33.1889 27.8548 33.106C27.9394 33.0231 28.0542 32.9766 28.1739 32.9766C28.519 32.9766 28.6251 33.1975 28.6251 33.5224V34.5632C28.8264 34.3772 29.0906 34.2703 29.3673 34.2627C29.4597 34.2629 29.5517 34.2763 29.6402 34.3025V33.0097H30.0418V34.4262L29.9538 34.5212ZM28.1671 33.2616C28.1449 33.2607 28.1228 33.2643 28.1021 33.2722C28.0814 33.2801 28.0626 33.2921 28.0469 33.3074C28.0312 33.3228 28.0189 33.3412 28.0109 33.3615C28.0028 33.3818 27.9992 33.4034 28.0001 33.4252C27.9989 33.4472 28.0023 33.4692 28.0102 33.4898C28.0181 33.5105 28.0302 33.5293 28.0459 33.5451C28.0616 33.5609 28.0805 33.5733 28.1014 33.5815C28.1222 33.5898 28.1446 33.5938 28.1671 33.5931C28.1897 33.5934 28.2121 33.5893 28.2331 33.5809C28.254 33.5726 28.273 33.5602 28.289 33.5446C28.305 33.5289 28.3176 33.5103 28.3261 33.4898C28.3346 33.4693 28.3388 33.4473 28.3385 33.4252C28.3391 33.3827 28.3227 33.3418 28.2927 33.3112C28.2627 33.2806 28.2216 33.2628 28.1784 33.2616H28.1671ZM29.5207 34.8881C29.5207 34.9941 29.5771 35.0671 29.6831 35.0671C29.7891 35.0671 29.8365 34.9941 29.8365 34.8881C29.8321 34.8415 29.8157 34.7968 29.7889 34.7582C29.7621 34.7195 29.7257 34.6882 29.6831 34.6671C29.6404 34.6878 29.604 34.7191 29.5775 34.7579C29.551 34.7966 29.5353 34.8415 29.532 34.8881H29.5207Z" fill="white"/>
<path d="M32.2105 35.3166V34.6669C32.2105 34.3619 31.9397 34.2051 31.6171 34.2051C31.2945 34.2051 31.1208 34.3509 31.1208 34.4968H31.1953C31.3115 34.4966 31.4233 34.5405 31.5073 34.6191C31.5914 34.6977 31.6412 34.8051 31.6465 34.9188C31.6465 35.036 31.5989 35.1485 31.5143 35.2313C31.4297 35.3142 31.3149 35.3608 31.1953 35.3608C30.8839 35.3608 30.7102 35.1398 30.7102 34.8128V34.6492C30.7102 34.1807 31.0915 33.8868 31.6126 33.8868C31.8313 33.8835 32.0437 33.9581 32.2105 34.0968V33.8139C32.1995 33.6763 32.1333 33.5485 32.0263 33.4586C31.9193 33.3687 31.7803 33.324 31.6397 33.3344C31.369 33.3344 31.0644 33.4802 31.0644 33.7631H30.6719C30.6719 33.2769 31.1682 33.0117 31.6397 33.0117C31.8112 33.0117 31.9807 33.0487 32.136 33.12L32.3616 32.877H32.8624L32.4112 33.341C32.4755 33.4023 32.5261 33.476 32.5599 33.5573C32.5937 33.6387 32.6099 33.7261 32.6075 33.8139V35.3276L32.2105 35.3166ZM31.1953 34.7509C31.1727 34.7505 31.1502 34.7548 31.1294 34.7633C31.1085 34.7718 31.0897 34.7844 31.074 34.8004C31.0584 34.8164 31.0462 34.8353 31.0384 34.8561C31.0305 34.8768 31.0271 34.8989 31.0283 34.921C31.0283 34.9644 31.0459 35.006 31.0772 35.0367C31.1085 35.0673 31.151 35.0846 31.1953 35.0846C31.2395 35.0846 31.282 35.0673 31.3133 35.0367C31.3446 35.006 31.3622 34.9644 31.3622 34.921C31.3634 34.8989 31.36 34.8768 31.3522 34.8561C31.3443 34.8353 31.3322 34.8164 31.3165 34.8004C31.3008 34.7844 31.282 34.7718 31.2611 34.7633C31.2403 34.7548 31.2179 34.7505 31.1953 34.7509Z" fill="white"/>
<path d="M35.292 34.5212C35.357 34.5545 35.4119 34.6039 35.4515 34.6643C35.491 34.7248 35.5138 34.7943 35.5176 34.866C35.5226 34.9305 35.5131 34.9952 35.4897 35.0557C35.4663 35.1162 35.4296 35.171 35.3823 35.2161C35.335 35.2612 35.2781 35.2955 35.2157 35.3168C35.1534 35.338 35.087 35.3455 35.0213 35.3389C34.9608 35.3457 34.8995 35.3395 34.8417 35.3208C34.7839 35.3021 34.7309 35.2712 34.6865 35.2304C34.642 35.1896 34.6072 35.1399 34.5844 35.0846C34.5616 35.0293 34.5513 34.9697 34.5543 34.9102C34.5559 34.8494 34.5725 34.7898 34.6028 34.7367C34.6331 34.6836 34.676 34.6385 34.728 34.6052C34.5765 34.6121 34.4288 34.6534 34.2964 34.7259C34.1641 34.7984 34.0508 34.9001 33.9655 35.0229L33.9317 35.3168H33.5752V34.1367C33.5798 34.0381 33.5911 33.9399 33.6091 33.8428C33.576 33.8445 33.5429 33.8445 33.5098 33.8428C33.3932 33.8429 33.2811 33.7988 33.197 33.7197C33.1128 33.6406 33.0633 33.5327 33.0586 33.4185C33.0586 33.3013 33.1061 33.1889 33.1907 33.106C33.2754 33.0231 33.3901 32.9766 33.5098 32.9766C33.8572 32.9766 33.961 33.1975 33.961 33.5224V34.5632C34.1635 34.3776 34.4282 34.2708 34.7055 34.2627C34.7972 34.2629 34.8884 34.2763 34.9762 34.3025V33.0097H35.38V34.4262L35.292 34.5212ZM33.503 33.2616C33.4808 33.2607 33.4587 33.2643 33.438 33.2722C33.4173 33.2801 33.3985 33.2921 33.3828 33.3074C33.3671 33.3228 33.3549 33.3412 33.3468 33.3615C33.3388 33.3818 33.3351 33.4034 33.3361 33.4252C33.3352 33.4471 33.3388 33.469 33.3468 33.4895C33.3548 33.5099 33.367 33.5286 33.3826 33.5443C33.3983 33.5601 33.417 33.5725 33.4377 33.5809C33.4584 33.5893 33.4806 33.5934 33.503 33.5931C33.5258 33.5937 33.5485 33.5898 33.5697 33.5816C33.5909 33.5734 33.6102 33.5611 33.6264 33.5454C33.6426 33.5297 33.6555 33.511 33.6641 33.4903C33.6727 33.4696 33.677 33.4475 33.6767 33.4252C33.6771 33.403 33.6728 33.3811 33.6641 33.3606C33.6554 33.3402 33.6425 33.3217 33.6262 33.3064C33.6099 33.2911 33.5905 33.2792 33.5694 33.2715C33.5482 33.2638 33.5256 33.2604 33.503 33.2616ZM34.8566 34.8881C34.8566 34.9941 34.913 35.0671 35.0168 35.0671C35.1206 35.0671 35.1725 34.9941 35.1725 34.8881C35.168 34.8412 35.1514 34.7963 35.1241 34.7576C35.0969 34.7189 35.0599 34.6877 35.0168 34.6671C34.974 34.6876 34.9374 34.7189 34.9109 34.7577C34.8843 34.7965 34.8687 34.8415 34.8656 34.8881H34.8566Z" fill="white"/>
<path d="M36.1056 32.5367C35.7501 32.6886 35.3654 32.764 34.9776 32.7577C34.4519 32.7577 34.3008 32.5809 34.3008 32.3046C34.301 32.2503 34.3125 32.1965 34.3347 32.1467C34.357 32.0969 34.3894 32.0521 34.4299 32.015C34.4705 31.978 34.5185 31.9494 34.5707 31.9312C34.623 31.913 34.6786 31.9055 34.7339 31.9091C34.8431 31.9097 34.9476 31.9521 35.0252 32.0272C35.1028 32.1024 35.1473 32.2044 35.149 32.3113C35.1486 32.3517 35.1425 32.3918 35.131 32.4306C35.4472 32.4103 35.7572 32.3355 36.0469 32.2096L36.1056 32.5367ZM34.8941 32.3157C34.8893 32.2753 34.8696 32.2381 34.8386 32.211C34.8076 32.184 34.7675 32.1691 34.726 32.1691C34.6845 32.1691 34.6445 32.184 34.6135 32.211C34.5825 32.2381 34.5627 32.2753 34.558 32.3157C34.5552 32.3389 34.5575 32.3624 34.5647 32.3847C34.5719 32.407 34.5838 32.4276 34.5997 32.445C34.6156 32.4625 34.635 32.4765 34.6568 32.486C34.6786 32.4956 34.7022 32.5005 34.726 32.5005C34.7499 32.5005 34.7735 32.4956 34.7953 32.486C34.817 32.4765 34.8365 32.4625 34.8524 32.445C34.8683 32.4276 34.8802 32.407 34.8874 32.3847C34.8946 32.3624 34.8969 32.3389 34.8941 32.3157Z" fill="white"/>
<path d="M36.257 35.3168V35.0295L36.4284 35.0008V34.1367C36.4334 34.038 36.4454 33.9398 36.4645 33.8428C36.4315 33.8445 36.3983 33.8445 36.3653 33.8428C36.2487 33.8429 36.1365 33.7988 36.0524 33.7197C35.9683 33.6406 35.9187 33.5327 35.9141 33.4185C35.9141 33.3013 35.9616 33.1889 36.0462 33.106C36.1308 33.0231 36.2456 32.9766 36.3653 32.9766C36.7127 32.9766 36.8165 33.1975 36.8165 33.5224V34.9809H37.7189C37.733 34.9821 37.7472 34.9805 37.7607 34.9762C37.7741 34.972 37.7866 34.9651 37.7973 34.956C37.8081 34.947 37.8168 34.9359 37.8231 34.9235C37.8294 34.911 37.8331 34.8975 37.8339 34.8836V33.0097H38.2355V34.8792C38.2355 35.1444 38.0821 35.2969 37.7707 35.2969L36.257 35.3168ZM36.3653 33.2616C36.3431 33.2607 36.3209 33.2643 36.3003 33.2722C36.2796 33.2801 36.2608 33.2921 36.2451 33.3074C36.2294 33.3228 36.2171 33.3412 36.2091 33.3615C36.201 33.3818 36.1974 33.4034 36.1983 33.4252C36.1974 33.4471 36.201 33.469 36.2091 33.4895C36.2171 33.5099 36.2292 33.5286 36.2449 33.5443C36.2605 33.5601 36.2792 33.5725 36.2999 33.5809C36.3206 33.5893 36.3429 33.5934 36.3653 33.5931C36.388 33.5937 36.4107 33.5898 36.4319 33.5816C36.4531 33.5734 36.4724 33.5611 36.4886 33.5454C36.5049 33.5297 36.5177 33.511 36.5263 33.4903C36.535 33.4696 36.5393 33.4475 36.539 33.4252C36.5393 33.403 36.535 33.3811 36.5263 33.3606C36.5176 33.3402 36.5047 33.3217 36.4884 33.3064C36.4721 33.2911 36.4528 33.2792 36.4316 33.2715C36.4104 33.2638 36.3878 33.2604 36.3653 33.2616Z" fill="white"/>
<path d="M40.427 35.3166V34.6669C40.427 34.3619 40.1562 34.2051 39.8336 34.2051C39.511 34.2051 39.3373 34.3509 39.3373 34.4968H39.4118C39.528 34.4966 39.6398 34.5405 39.7238 34.6191C39.8079 34.6977 39.8577 34.8051 39.863 34.9188C39.863 35.036 39.8154 35.1485 39.7308 35.2313C39.6462 35.3142 39.5314 35.3608 39.4118 35.3608C39.1027 35.3608 38.929 35.1398 38.929 34.8128V34.6492C38.929 34.1807 39.308 33.8868 39.8314 33.8868C40.0505 33.8846 40.2633 33.959 40.4315 34.0968V33.8139C40.4205 33.6763 40.3543 33.5485 40.2473 33.4586C40.1403 33.3687 40.0013 33.324 39.8607 33.3344C39.59 33.3344 39.2832 33.4802 39.2832 33.7631H38.8906C38.8906 33.2769 39.3869 33.0117 39.8607 33.0117C40.0322 33.0119 40.2016 33.0489 40.357 33.12L40.5826 32.877H41.0857L40.6345 33.341C40.6984 33.4025 40.7488 33.4762 40.7826 33.5576C40.8164 33.6389 40.8328 33.7261 40.8308 33.8139V35.3276L40.427 35.3166ZM39.4118 34.7509C39.3892 34.7505 39.3667 34.7548 39.3459 34.7633C39.325 34.7718 39.3062 34.7844 39.2905 34.8004C39.2749 34.8164 39.2627 34.8353 39.2549 34.8561C39.247 34.8768 39.2436 34.8989 39.2448 34.921C39.2448 34.9644 39.2624 35.006 39.2937 35.0367C39.325 35.0673 39.3675 35.0846 39.4118 35.0846C39.456 35.0846 39.4985 35.0673 39.5298 35.0367C39.5611 35.006 39.5787 34.9644 39.5787 34.921C39.5799 34.8989 39.5765 34.8768 39.5687 34.8561C39.5608 34.8353 39.5487 34.8164 39.533 34.8004C39.5173 34.7844 39.4985 34.7718 39.4776 34.7633C39.4568 34.7548 39.4344 34.7505 39.4118 34.7509Z" fill="white"/>
<path d="M43.5202 34.5212C43.5852 34.5545 43.6401 34.6039 43.6797 34.6643C43.7192 34.7248 43.742 34.7943 43.7458 34.866C43.7508 34.9305 43.7413 34.9952 43.7179 35.0557C43.6945 35.1162 43.6579 35.171 43.6105 35.2161C43.5632 35.2612 43.5063 35.2955 43.4439 35.3168C43.3816 35.338 43.3152 35.3455 43.2495 35.3389C43.189 35.3457 43.1277 35.3395 43.0699 35.3208C43.0121 35.3021 42.9591 35.2712 42.9147 35.2304C42.8702 35.1896 42.8354 35.1399 42.8126 35.0846C42.7898 35.0293 42.7795 34.9697 42.7825 34.9102C42.7841 34.8494 42.8008 34.7898 42.831 34.7367C42.8613 34.6836 42.9042 34.6385 42.9562 34.6052C42.805 34.6117 42.6574 34.6529 42.5254 34.7254C42.3933 34.798 42.2805 34.8999 42.196 35.0229L42.1599 35.3168H41.8034V34.1367C41.8081 34.0381 41.8194 33.9399 41.8373 33.8428C41.805 33.8445 41.7726 33.8445 41.7403 33.8428C41.6237 33.8429 41.5115 33.7988 41.4274 33.7197C41.3433 33.6406 41.2937 33.5327 41.2891 33.4185C41.2891 33.3013 41.3366 33.1889 41.4212 33.106C41.5058 33.0231 41.6206 32.9766 41.7403 32.9766C42.0854 32.9766 42.1915 33.1975 42.1915 33.5224V34.5632C42.3928 34.3772 42.657 34.2703 42.9337 34.2627C43.0254 34.2629 43.1166 34.2763 43.2044 34.3025V33.0097H43.6082V34.4262L43.5202 34.5212ZM41.7335 33.2616C41.7113 33.2607 41.6892 33.2643 41.6685 33.2722C41.6478 33.2801 41.629 33.2921 41.6133 33.3074C41.5976 33.3228 41.5854 33.3412 41.5773 33.3615C41.5693 33.3818 41.5656 33.4034 41.5666 33.4252C41.5653 33.4472 41.5687 33.4692 41.5766 33.4898C41.5845 33.5105 41.5967 33.5293 41.6123 33.5451C41.628 33.5609 41.6469 33.5733 41.6678 33.5815C41.6886 33.5898 41.711 33.5938 41.7335 33.5931C41.7561 33.5934 41.7785 33.5893 41.7995 33.5809C41.8204 33.5726 41.8394 33.5602 41.8554 33.5446C41.8714 33.5289 41.884 33.5103 41.8925 33.4898C41.901 33.4693 41.9053 33.4473 41.9049 33.4252C41.9056 33.4016 41.9009 33.3782 41.8912 33.3565C41.8816 33.3349 41.8672 33.3156 41.8492 33.3001C41.8311 33.2845 41.8098 33.2729 41.7867 33.2663C41.7636 33.2597 41.7392 33.2581 41.7154 33.2616H41.7335ZM43.0871 34.8881C43.0871 34.9941 43.1435 35.0671 43.2473 35.0671C43.351 35.0671 43.4029 34.9941 43.4029 34.8881C43.3985 34.8412 43.3819 34.7963 43.3546 34.7576C43.3274 34.7189 43.2904 34.6877 43.2473 34.6671C43.2022 34.6862 43.1631 34.7167 43.1342 34.7556C43.1052 34.7945 43.0874 34.8402 43.0826 34.8881H43.0871Z" fill="white"/>
<path d="M43.2545 36.6944V36.2525C43.2046 36.2631 43.1529 36.2628 43.1032 36.2515C43.0534 36.2402 43.0068 36.2182 42.9668 36.1871C42.9268 36.1561 42.8943 36.1167 42.8716 36.0718C42.849 36.027 42.8368 35.9777 42.836 35.9277C42.8351 35.8777 42.8456 35.8281 42.8667 35.7825C42.8878 35.737 42.9189 35.6966 42.9579 35.6642C42.9969 35.6318 43.0427 35.6084 43.092 35.5954C43.1413 35.5825 43.193 35.5805 43.2432 35.5895C43.2939 35.5908 43.3437 35.6023 43.3896 35.6232C43.4355 35.6441 43.4765 35.674 43.5101 35.7111C43.5438 35.7482 43.5693 35.7916 43.585 35.8388C43.6008 35.8859 43.6066 35.9357 43.6019 35.9851V36.6944H43.2545ZM43.2365 35.8105C43.2191 35.8105 43.2019 35.8139 43.1859 35.8205C43.1698 35.827 43.1553 35.8367 43.1431 35.8488C43.131 35.8609 43.1214 35.8753 43.1149 35.8911C43.1085 35.9069 43.1053 35.9239 43.1056 35.9409C43.1053 35.9576 43.1085 35.9742 43.115 35.9897C43.1215 36.0051 43.1312 36.0191 43.1435 36.0307C43.1558 36.0423 43.1704 36.0513 43.1864 36.0572C43.2024 36.063 43.2194 36.0655 43.2365 36.0646C43.2538 36.0672 43.2714 36.0657 43.288 36.0605C43.3047 36.0552 43.3198 36.0462 43.3323 36.0342C43.3448 36.0222 43.3542 36.0075 43.3599 35.9913C43.3656 35.9751 43.3674 35.9578 43.3651 35.9409C43.366 35.9239 43.3633 35.9069 43.3573 35.891C43.3512 35.875 43.3418 35.8605 43.3298 35.8482C43.3177 35.836 43.3032 35.8263 43.2871 35.8198C43.2711 35.8133 43.2538 35.8102 43.2365 35.8105Z" fill="white"/>
<path d="M46.3327 34.5212C46.3977 34.5545 46.4526 34.6039 46.4922 34.6643C46.5317 34.7248 46.5545 34.7943 46.5583 34.866C46.5633 34.9303 46.5538 34.9948 46.5305 35.0551C46.5073 35.1155 46.4708 35.1701 46.4237 35.2151C46.3767 35.2602 46.3201 35.2946 46.258 35.316C46.1959 35.3374 46.1298 35.3452 46.0643 35.3389C46.0038 35.3457 45.9425 35.3395 45.8847 35.3208C45.8268 35.3021 45.7739 35.2712 45.7294 35.2304C45.685 35.1896 45.6502 35.1399 45.6273 35.0846C45.6045 35.0293 45.5943 34.9697 45.5973 34.9102C45.5986 34.8496 45.6149 34.7902 45.6448 34.7371C45.6746 34.684 45.7172 34.6387 45.7687 34.6052C45.6175 34.6117 45.4699 34.6529 45.3379 34.7254C45.2058 34.798 45.093 34.8999 45.0085 35.0229L44.9746 35.3168H44.6159V34.1367C44.6205 34.0381 44.6319 33.9399 44.6498 33.8428C44.6175 33.8445 44.5851 33.8445 44.5528 33.8428C44.4362 33.8429 44.324 33.7988 44.2399 33.7197C44.1558 33.6406 44.1062 33.5327 44.1016 33.4185C44.1016 33.3013 44.1491 33.1889 44.2337 33.106C44.3183 33.0231 44.4331 32.9766 44.5528 32.9766C44.8979 32.9766 45.004 33.1975 45.004 33.5224V34.5632C45.2059 34.3767 45.471 34.2697 45.7484 34.2627C45.8394 34.2629 45.9299 34.2763 46.0169 34.3025V33.0097H46.4207V34.4262L46.3327 34.5212ZM44.546 33.2616C44.5238 33.2607 44.5017 33.2643 44.481 33.2722C44.4603 33.2801 44.4415 33.2921 44.4258 33.3074C44.4101 33.3228 44.3978 33.3412 44.3898 33.3615C44.3817 33.3818 44.3781 33.4034 44.379 33.4252C44.3781 33.4471 44.3818 33.469 44.3898 33.4895C44.3978 33.5099 44.41 33.5286 44.4256 33.5443C44.4412 33.5601 44.46 33.5725 44.4807 33.5809C44.5014 33.5893 44.5236 33.5934 44.546 33.5931C44.5687 33.5934 44.5912 33.5893 44.6123 33.581C44.6334 33.5727 44.6525 33.5603 44.6687 33.5447C44.6848 33.5291 44.6977 33.5105 44.7064 33.4899C44.7152 33.4694 44.7197 33.4474 44.7197 33.4252C44.7197 33.4031 44.7152 33.3813 44.7064 33.361C44.6976 33.3407 44.6847 33.3224 44.6684 33.3071C44.6522 33.2918 44.633 33.2799 44.612 33.2721C44.5909 33.2643 44.5685 33.2607 44.546 33.2616ZM45.8996 34.8881C45.8963 34.9104 45.8981 34.9332 45.9046 34.9549C45.9112 34.9766 45.9225 34.9966 45.9377 35.0136C45.9529 35.0306 45.9717 35.0442 45.9928 35.0534C46.0138 35.0626 46.0367 35.0673 46.0598 35.0671C46.159 35.0671 46.2177 34.9941 46.2177 34.8881C46.2128 34.8411 46.1958 34.7961 46.1681 34.7574C46.1405 34.7187 46.1032 34.6876 46.0598 34.6671C46.0165 34.6873 45.9795 34.7184 45.9526 34.7573C45.9256 34.7961 45.9097 34.8412 45.9064 34.8881H45.8996Z" fill="white"/>
<path d="M2.77945 40.6254V39.2022C2.78667 39.1269 2.77691 39.0508 2.75084 38.9796C2.72478 38.9083 2.68305 38.8435 2.62861 38.7897C2.57417 38.736 2.50835 38.6946 2.43579 38.6685C2.36323 38.6424 2.2857 38.6322 2.20869 38.6387C2.1038 38.6386 2.00012 38.6606 1.90473 38.7033C1.80934 38.7461 1.72449 38.8084 1.65597 38.8862L1.95602 39.0453V39.2663C1.897 39.2743 1.84287 39.3028 1.80352 39.3466C1.76417 39.3904 1.74223 39.4466 1.7417 39.505V40.6099H1.33337V39.505C1.33287 39.4317 1.35386 39.3599 1.39386 39.298C1.43385 39.2361 1.49116 39.1867 1.55896 39.1558L1.20703 38.9857V38.789C1.3235 38.6392 1.47222 38.5165 1.64261 38.4294C1.813 38.3423 2.00088 38.2931 2.1929 38.2852C2.76366 38.2852 3.16748 38.5503 3.16748 39.1691V40.5922L2.77945 40.6254Z" fill="white"/>
<path d="M5.2717 40.6252V39.1247C5.2717 38.8065 5.15214 38.643 4.8927 38.643C4.83312 38.637 4.77292 38.6439 4.71634 38.6631C4.65976 38.6824 4.60817 38.7135 4.56518 38.7544C4.52219 38.7952 4.48884 38.8448 4.46747 38.8996C4.44611 38.9544 4.43725 39.0131 4.4415 39.0717H4.0625C4.0625 38.5855 4.42345 38.3203 4.89721 38.3203C5.44541 38.3203 5.66876 38.6098 5.66876 39.1247V40.6362L5.2717 40.6252Z" fill="white"/>
<path d="M8.15015 40.1105C8.15015 40.4331 8.01028 40.6608 7.66511 40.6608C7.54545 40.6608 7.43068 40.6142 7.34607 40.5313C7.26145 40.4484 7.21391 40.336 7.21391 40.2188C7.21914 40.1051 7.26898 39.9977 7.35303 39.9191C7.43709 39.8404 7.54888 39.7966 7.66511 39.7967C7.69248 39.7979 7.71967 39.8016 7.74633 39.8078V39.6266C7.74633 39.5028 7.69895 39.4454 7.57261 39.4454H6.68601C6.68601 39.4454 6.66797 39.2664 6.66797 39.0741C6.66797 38.5946 7.06051 38.3051 7.57036 38.3051C7.8262 38.2997 8.08019 38.3487 8.31484 38.4487V38.8156C8.08391 38.7019 7.82877 38.6436 7.57036 38.6454C7.24099 38.6454 7.06953 38.7912 7.06953 39.0233C7.06695 39.0549 7.06695 39.0867 7.06953 39.1183H7.59518C7.94034 39.1183 8.15466 39.2885 8.15466 39.6045L8.15015 40.1105ZM7.66511 40.0619C7.64251 40.0616 7.62009 40.0658 7.59923 40.0743C7.57837 40.0828 7.55952 40.0955 7.54386 40.1114C7.5282 40.1274 7.51607 40.1463 7.50821 40.1671C7.50035 40.1878 7.49693 40.21 7.49817 40.2321C7.49753 40.2536 7.50143 40.275 7.50962 40.295C7.51781 40.315 7.53012 40.3332 7.54579 40.3483C7.56145 40.3635 7.58013 40.3753 7.60066 40.383C7.62119 40.3908 7.64313 40.3943 7.66511 40.3934C7.68749 40.3946 7.70987 40.3913 7.73091 40.3837C7.75194 40.3762 7.77118 40.3645 7.78744 40.3494C7.8037 40.3343 7.81665 40.3161 7.82548 40.2959C7.83432 40.2757 7.83885 40.254 7.83882 40.2321C7.83944 40.2095 7.83538 40.1871 7.82687 40.1662C7.81836 40.1453 7.80558 40.1263 7.78933 40.1104C7.77307 40.0945 7.75367 40.0819 7.73231 40.0736C7.71096 40.0653 7.68809 40.0613 7.66511 40.0619Z" fill="white"/>
<path d="M11.0168 40.6252V39.9777C11.0168 39.6705 10.7461 39.5137 10.4235 39.5137C10.1009 39.5137 9.92716 39.6595 9.92716 39.8053H10.0016C10.1178 39.8052 10.2296 39.8491 10.3137 39.9277C10.3977 40.0063 10.4476 40.1137 10.4528 40.2274C10.4528 40.3446 10.4053 40.4571 10.3206 40.5399C10.236 40.6228 10.1213 40.6694 10.0016 40.6694C9.69027 40.6694 9.51882 40.4484 9.51882 40.1191V39.9556C9.51882 39.4871 9.89783 39.1932 10.4212 39.1932C10.6418 39.1941 10.8548 39.2725 11.0213 39.4142V39.1247C11.0104 38.9865 10.9439 38.8581 10.8365 38.7678C10.729 38.6775 10.5894 38.6326 10.4483 38.643C10.1798 38.643 9.87301 38.7888 9.87301 39.0717H9.48047C9.48047 38.5855 9.97679 38.3203 10.4483 38.3203C10.6198 38.3203 10.7893 38.3573 10.9446 38.4286L11.1702 38.1855H11.671L11.2198 38.6496C11.2835 38.7117 11.3336 38.7858 11.367 38.8675C11.4003 38.9492 11.4163 39.0368 11.4138 39.1247V40.6362L11.0168 40.6252ZM10.0016 40.0617C9.979 40.0614 9.95658 40.0656 9.93572 40.0741C9.91486 40.0826 9.89601 40.0952 9.88035 40.1112C9.86469 40.1272 9.85256 40.1461 9.8447 40.1669C9.83684 40.1876 9.83342 40.2097 9.83466 40.2318C9.83466 40.2752 9.85225 40.3168 9.88356 40.3475C9.91486 40.3781 9.95732 40.3954 10.0016 40.3954C10.0459 40.3954 10.0883 40.3781 10.1196 40.3475C10.151 40.3168 10.1685 40.2752 10.1685 40.2318C10.1698 40.2097 10.1664 40.1876 10.1585 40.1669C10.1506 40.1461 10.1385 40.1272 10.1228 40.1112C10.1072 40.0952 10.0883 40.0826 10.0675 40.0741C10.0466 40.0656 10.0242 40.0614 10.0016 40.0617Z" fill="white"/>
<path d="M14.085 40.1105C14.085 40.4332 13.9451 40.6608 13.5999 40.6608C13.4803 40.6608 13.3655 40.6142 13.2809 40.5313C13.1963 40.4484 13.1487 40.336 13.1487 40.2188C13.154 40.1051 13.2038 39.9977 13.2878 39.9191C13.3719 39.8404 13.4837 39.7966 13.5999 39.7967C13.6265 39.7978 13.653 39.8015 13.6789 39.8078V39.6266C13.6789 39.5028 13.6338 39.4454 13.5074 39.4454H12.6118C12.6118 39.4454 12.5938 39.2664 12.5938 39.0741C12.5938 38.5946 12.9885 38.3051 13.4961 38.3051C13.7513 38.2997 14.0045 38.3487 14.2384 38.4487V38.8156C14.0081 38.7022 13.7538 38.6439 13.4961 38.6454C13.1668 38.6454 12.9953 38.7913 12.9953 39.0233C12.9927 39.0549 12.9927 39.0867 12.9953 39.1183H13.5142C13.8616 39.1183 14.0759 39.2885 14.0759 39.6045L14.085 40.1105ZM13.5999 40.0619C13.5773 40.0616 13.5549 40.0658 13.534 40.0743C13.5132 40.0828 13.4943 40.0955 13.4787 40.1114C13.463 40.1274 13.4509 40.1463 13.443 40.1671C13.4351 40.1878 13.4317 40.21 13.433 40.2321C13.432 40.2537 13.4357 40.2753 13.4437 40.2954C13.4518 40.3156 13.4641 40.3339 13.4798 40.3491C13.4956 40.3643 13.5144 40.3761 13.5351 40.3837C13.5558 40.3913 13.5779 40.3946 13.5999 40.3934C13.6222 40.3946 13.6445 40.3913 13.6654 40.3837C13.6863 40.3761 13.7054 40.3644 13.7215 40.3493C13.7376 40.3341 13.7503 40.3159 13.7589 40.2958C13.7675 40.2756 13.7717 40.2539 13.7714 40.2321C13.772 40.2097 13.768 40.1875 13.7596 40.1668C13.7512 40.146 13.7387 40.1271 13.7227 40.1112C13.7066 40.0953 13.6875 40.0828 13.6664 40.0743C13.6453 40.0658 13.6227 40.0616 13.5999 40.0619Z" fill="white"/>
<path d="M14.7573 36.9406C14.7165 37.2171 14.5701 37.4682 14.3479 37.6432C14.1256 37.8183 13.8439 37.9044 13.5594 37.8842C13.4782 37.8842 13.2706 37.8621 13.2706 37.8621L13.2368 37.6124C13.2368 37.6124 13.327 37.6124 13.397 37.6124C13.5414 37.6124 13.6226 37.4268 13.6226 37.4268C13.5859 37.4312 13.5487 37.4312 13.512 37.4268C13.4371 37.4263 13.3651 37.398 13.3106 37.3476C13.2562 37.2971 13.2233 37.2282 13.2188 37.155C13.2184 37.1094 13.2275 37.0643 13.2454 37.0223C13.2633 36.9803 13.2897 36.9422 13.323 36.9104C13.3563 36.8787 13.3958 36.8538 13.4391 36.8373C13.4825 36.8209 13.5287 36.8131 13.5752 36.8146C13.6678 36.8146 13.7566 36.8503 13.8225 36.914C13.8884 36.9777 13.9259 37.0643 13.9271 37.155C13.9304 37.3105 13.8777 37.4623 13.7782 37.5837C13.9452 37.5605 14.0991 37.4821 14.2144 37.3615C14.3297 37.241 14.3995 37.0854 14.4122 36.9207L14.7573 36.9406ZM13.5594 37.0489C13.5307 37.0494 13.5032 37.0607 13.4826 37.0804C13.4621 37.1001 13.45 37.1268 13.4489 37.155C13.45 37.1827 13.4623 37.2089 13.4829 37.2279C13.5036 37.2469 13.5311 37.2572 13.5594 37.2566C13.5869 37.2566 13.6133 37.2459 13.6328 37.2268C13.6523 37.2078 13.6632 37.1819 13.6632 37.155C13.6632 37.1276 13.6524 37.1012 13.6331 37.0815C13.6137 37.0617 13.5873 37.05 13.5594 37.0489Z" fill="white"/>
<path d="M16.5028 40.6252V39.1247C16.5028 38.8065 16.3832 38.643 16.1215 38.643C16.0619 38.6366 16.0015 38.6432 15.9447 38.6623C15.888 38.6814 15.8362 38.7126 15.7931 38.7535C15.75 38.7944 15.7167 38.8442 15.6955 38.8992C15.6743 38.9541 15.6657 39.013 15.6703 39.0717H15.2891C15.2891 38.5855 15.6523 38.3203 16.1238 38.3203C16.672 38.3203 16.8976 38.6098 16.8976 39.1247V40.6362L16.5028 40.6252Z" fill="white"/>
<path d="M17.832 39.125H18.2539L18.6848 40.3581C18.7188 40.366 18.7536 40.3697 18.7886 40.3692C19.0142 40.3692 19.1225 40.1592 19.1225 39.8432V39.4477C19.1225 39.3416 19.1473 39.1494 19.1473 39.1494C19.1185 39.1572 19.089 39.1623 19.0593 39.1648C18.9431 39.1649 18.8313 39.1211 18.7472 39.0425C18.6632 38.9639 18.6133 38.8565 18.6081 38.7427C18.6081 38.6255 18.6556 38.5131 18.7402 38.4302C18.8249 38.3473 18.9396 38.3008 19.0593 38.3008C19.4067 38.3008 19.5263 38.5218 19.5263 38.8488V39.8477C19.5263 40.3051 19.2668 40.6498 18.7953 40.6498C18.6673 40.6587 18.5389 40.6374 18.4208 40.5879L17.832 39.125ZM19.0548 38.5726C19.0326 38.5717 19.0105 38.5752 18.9898 38.5831C18.9691 38.591 18.9503 38.603 18.9346 38.6184C18.9189 38.6338 18.9066 38.6522 18.8986 38.6724C18.8905 38.6927 18.8869 38.7144 18.8878 38.7361C18.8869 38.7581 18.8906 38.7801 18.8985 38.8007C18.9065 38.8213 18.9187 38.8402 18.9343 38.8561C18.9499 38.872 18.9686 38.8846 18.9893 38.8932C19.01 38.9019 19.0323 38.9063 19.0548 38.9063C19.0777 38.9066 19.1004 38.9024 19.1216 38.8939C19.1428 38.8855 19.1621 38.873 19.1783 38.8571C19.1945 38.8412 19.2073 38.8224 19.2159 38.8016C19.2245 38.7808 19.2288 38.7585 19.2285 38.7361C19.2291 38.7138 19.2251 38.6916 19.2165 38.6709C19.208 38.6502 19.1951 38.6315 19.1788 38.6159C19.1625 38.6003 19.143 38.5882 19.1217 38.5804C19.1003 38.5726 19.0775 38.5691 19.0548 38.5704V38.5726Z" fill="white"/>
<path d="M20.6953 38.3379H21.0991V39.3831C21.0991 39.6041 21.0766 39.8251 21.0766 39.8251C21.1028 39.816 21.1301 39.81 21.1578 39.8074C21.274 39.8073 21.3858 39.8511 21.4699 39.9298C21.5539 40.0084 21.6037 40.1158 21.609 40.2295C21.609 40.3467 21.5614 40.4591 21.4768 40.542C21.3922 40.6249 21.2774 40.6715 21.1578 40.6715C20.8803 40.6715 20.6953 40.4903 20.6953 40.1345V38.3379ZM21.1578 40.0616C21.1349 40.0613 21.1122 40.0655 21.091 40.0739C21.0697 40.0823 21.0505 40.0949 21.0343 40.1107C21.0181 40.1266 21.0053 40.1455 20.9967 40.1662C20.9881 40.187 20.9838 40.2093 20.9841 40.2317C20.984 40.2537 20.9886 40.2754 20.9974 40.2956C21.0063 40.3157 21.0192 40.3339 21.0355 40.349C21.0517 40.3641 21.071 40.3758 21.092 40.3834C21.113 40.391 21.1354 40.3942 21.1578 40.393C21.1798 40.3939 21.2017 40.3904 21.2222 40.3827C21.2428 40.3749 21.2614 40.3631 21.2771 40.348C21.2928 40.3328 21.3051 40.3147 21.3133 40.2947C21.3215 40.2747 21.3254 40.2533 21.3247 40.2317C21.326 40.2096 21.3226 40.1875 21.3147 40.1667C21.3068 40.146 21.2947 40.127 21.279 40.1111C21.2634 40.0951 21.2445 40.0825 21.2237 40.074C21.2028 40.0654 21.1804 40.0612 21.1578 40.0616Z" fill="white"/>
<path d="M24.1206 40.6252V39.9777C24.1206 39.6705 23.8499 39.5137 23.5273 39.5137C23.2047 39.5137 23.031 39.6595 23.031 39.8053H23.1054C23.2216 39.8052 23.3334 39.8491 23.4175 39.9277C23.5016 40.0063 23.5514 40.1137 23.5566 40.2274C23.5566 40.3446 23.5091 40.4571 23.4245 40.5399C23.3398 40.6228 23.2251 40.6694 23.1054 40.6694C22.7941 40.6694 22.6204 40.4484 22.6204 40.1191V39.9556C22.6204 39.4871 23.0016 39.1932 23.5228 39.1932C23.7434 39.1941 23.9563 39.2725 24.1229 39.4142V39.1247C24.1119 38.9865 24.0454 38.8581 23.938 38.7678C23.8306 38.6775 23.691 38.6326 23.5499 38.643C23.2791 38.643 22.9746 38.7888 22.9746 39.0717H22.582C22.582 38.5855 23.0783 38.3203 23.5499 38.3203C23.7214 38.3203 23.8908 38.3573 24.0462 38.4286L24.2718 38.1855H24.7726L24.3214 38.6496C24.3859 38.7112 24.4367 38.7852 24.4705 38.867C24.5043 38.9488 24.5204 39.0365 24.5177 39.1247V40.6362L24.1206 40.6252ZM23.1054 40.0617C23.0828 40.0614 23.0604 40.0656 23.0395 40.0741C23.0187 40.0826 22.9998 40.0952 22.9842 40.1112C22.9685 40.1272 22.9564 40.1461 22.9485 40.1669C22.9407 40.1876 22.9372 40.2097 22.9385 40.2318C22.9385 40.2752 22.9561 40.3168 22.9874 40.3475C23.0187 40.3781 23.0611 40.3954 23.1054 40.3954C23.1497 40.3954 23.1922 40.3781 23.2235 40.3475C23.2548 40.3168 23.2724 40.2752 23.2724 40.2318C23.2737 40.2092 23.2701 40.1865 23.2618 40.1652C23.2535 40.144 23.2408 40.1247 23.2244 40.1087C23.208 40.0926 23.1883 40.0801 23.1666 40.072C23.145 40.0639 23.1218 40.0604 23.0987 40.0617H23.1054Z" fill="white"/>
<path d="M27.1775 40.1105C27.1775 40.4331 27.0399 40.6607 26.6925 40.6607C26.5728 40.6607 26.458 40.6142 26.3734 40.5313C26.2888 40.4484 26.2413 40.336 26.2413 40.2188C26.2465 40.105 26.2963 39.9977 26.3804 39.919C26.4644 39.8404 26.5762 39.7966 26.6925 39.7967C26.7198 39.7977 26.7471 39.8014 26.7737 39.8077V39.6265C26.7737 39.5028 26.7286 39.4453 26.6022 39.4453H25.7134C25.7134 39.4453 25.6953 39.2663 25.6953 39.0741C25.6953 38.5945 26.0879 38.3051 26.5977 38.3051C26.8528 38.2999 27.106 38.3489 27.3399 38.4487V38.8155C27.1097 38.7022 26.8554 38.6439 26.5977 38.6454C26.2683 38.6454 26.0946 38.7912 26.0946 39.0232C26.0908 39.0548 26.0908 39.0867 26.0946 39.1183H26.618C26.9632 39.1183 27.1775 39.2884 27.1775 39.6044V40.1105ZM26.6925 40.0619C26.6699 40.0615 26.6474 40.0657 26.6266 40.0743C26.6057 40.0828 26.5869 40.0954 26.5712 40.1114C26.5556 40.1273 26.5434 40.1463 26.5356 40.167C26.5277 40.1878 26.5243 40.2099 26.5255 40.232C26.5249 40.2536 26.5288 40.275 26.537 40.295C26.5452 40.315 26.5575 40.3331 26.5731 40.3483C26.5888 40.3634 26.6075 40.3752 26.628 40.383C26.6485 40.3907 26.6705 40.3943 26.6925 40.3933C26.7148 40.3945 26.7372 40.3913 26.7583 40.3837C26.7793 40.3761 26.7985 40.3644 26.8148 40.3493C26.8311 40.3342 26.844 40.316 26.8528 40.2959C26.8617 40.2757 26.8662 40.254 26.8662 40.232C26.8668 40.2095 26.8627 40.1871 26.8542 40.1662C26.8457 40.1453 26.8329 40.1263 26.8167 40.1103C26.8004 40.0944 26.781 40.0819 26.7597 40.0736C26.7383 40.0652 26.7154 40.0613 26.6925 40.0619Z" fill="white"/>
<path d="M25.6328 37.8784V37.6574C25.7193 37.4952 25.8487 37.3588 26.0074 37.2624C26.1662 37.166 26.3485 37.1131 26.5352 37.1094C26.7377 37.1152 26.9358 37.1688 27.1126 37.2658C27.2893 37.3627 27.4395 37.5001 27.5504 37.6663V37.8762L25.6328 37.8784ZM27.1218 37.6353C27.0478 37.5559 26.9574 37.4928 26.8567 37.4502C26.756 37.4075 26.6472 37.3863 26.5375 37.3878C26.439 37.3813 26.3406 37.4008 26.2525 37.4444C26.1643 37.4879 26.0898 37.5539 26.0366 37.6353H27.1218Z" fill="white"/>
<path d="M30.3956 40.6255L30.3663 40.4973C30.2811 40.3447 30.1632 40.2119 30.0207 40.1082C29.8782 40.0044 29.7144 39.9321 29.5406 39.8963V40.23C29.5469 40.2838 29.5408 40.3383 29.5229 40.3896C29.5049 40.4408 29.4755 40.4875 29.4369 40.5262C29.3982 40.565 29.3512 40.5947 29.2993 40.6135C29.2474 40.6322 29.1919 40.6393 29.1368 40.6344C28.8773 40.6344 28.6856 40.4996 28.6856 40.1217C28.6797 39.9869 28.7267 39.8551 28.8169 39.7532C28.9071 39.6513 29.0336 39.5871 29.1706 39.5736V39.4477C29.1757 39.3497 29.1877 39.2523 29.2067 39.156C29.1738 39.1614 29.1407 39.165 29.1074 39.167C28.9908 39.1671 28.8787 39.123 28.7946 39.0439C28.7105 38.9648 28.6609 38.8569 28.6562 38.7427C28.6562 38.6255 28.7038 38.5131 28.7884 38.4302C28.873 38.3473 28.9878 38.3008 29.1074 38.3008C29.4526 38.3008 29.5586 38.5218 29.5586 38.8488L29.5316 39.567C29.8448 39.6258 30.129 39.7852 30.3392 40.02V38.3361H30.743V40.6233L30.3956 40.6255ZM29.1029 38.5748C29.0806 38.5742 29.0585 38.5781 29.0378 38.5862C29.0171 38.5943 28.9983 38.6066 28.9827 38.6221C28.967 38.6376 28.9548 38.6562 28.9467 38.6766C28.9387 38.6969 28.9351 38.7187 28.936 38.7405C28.9351 38.7625 28.9387 38.7843 28.9467 38.8048C28.9547 38.8253 28.9669 38.844 28.9825 38.8597C28.9982 38.8754 29.0169 38.8879 29.0376 38.8963C29.0583 38.9046 29.0805 38.9088 29.1029 38.9085C29.1257 38.9091 29.1484 38.9052 29.1696 38.897C29.1908 38.8888 29.2101 38.8764 29.2263 38.8608C29.2425 38.8451 29.2554 38.8263 29.264 38.8057C29.2727 38.785 29.277 38.7629 29.2766 38.7405C29.277 38.7183 29.2727 38.6962 29.264 38.6757C29.2553 38.6552 29.2425 38.6366 29.2262 38.6211C29.2099 38.6055 29.1906 38.5934 29.1694 38.5855C29.1482 38.5775 29.1256 38.5739 29.1029 38.5748ZM29.1954 39.8874C29.0984 39.8874 29.033 39.9714 29.033 40.1084C29.033 40.3294 29.0849 40.3294 29.1255 40.3294C29.1661 40.3294 29.1954 40.3007 29.1954 40.2388V39.8874Z" fill="white"/>
<path d="M33.4777 40.6252V39.9777C33.4777 39.6705 33.207 39.5137 32.8821 39.5137C32.5573 39.5137 32.3881 39.6595 32.3881 39.8053H32.4625C32.5788 39.8052 32.6906 39.8491 32.7746 39.9277C32.8587 40.0063 32.9085 40.1137 32.9137 40.2274C32.9137 40.3446 32.8662 40.4571 32.7816 40.5399C32.697 40.6228 32.5822 40.6694 32.4625 40.6694C32.1512 40.6694 31.9775 40.4484 31.9775 40.1191V39.9556C31.9775 39.4871 32.3588 39.1932 32.8799 39.1932C33.1008 39.1925 33.3143 39.2711 33.48 39.4142V39.1247C33.4748 39.0564 33.456 38.9897 33.4245 38.9285C33.393 38.8672 33.3496 38.8127 33.2966 38.768C33.2435 38.7232 33.182 38.6892 33.1156 38.6677C33.0491 38.6463 32.979 38.6379 32.9092 38.643C32.6385 38.643 32.3339 38.7888 32.3339 39.0717H31.9414C31.9414 38.5855 32.4377 38.3203 32.9092 38.3203C33.0808 38.3203 33.2502 38.3573 33.4055 38.4286L33.6311 38.1855H34.132L33.6808 38.6496C33.7449 38.7115 33.7954 38.7855 33.8291 38.8673C33.8629 38.949 33.8792 39.0366 33.877 39.1247V40.6362L33.4777 40.6252ZM32.4625 40.0617C32.4399 40.0614 32.4175 40.0656 32.3967 40.0741C32.3758 40.0826 32.357 40.0952 32.3413 40.1112C32.3256 40.1272 32.3135 40.1461 32.3056 40.1669C32.2978 40.1876 32.2943 40.2097 32.2956 40.2318C32.2956 40.2752 32.3132 40.3168 32.3445 40.3475C32.3758 40.3781 32.4183 40.3954 32.4625 40.3954C32.5068 40.3954 32.5493 40.3781 32.5806 40.3475C32.6119 40.3168 32.6295 40.2752 32.6295 40.2318C32.6307 40.2101 32.6274 40.1884 32.6198 40.1679C32.6122 40.1475 32.6005 40.1287 32.5853 40.1128C32.5702 40.0969 32.5519 40.0842 32.5315 40.0754C32.5112 40.0666 32.4893 40.062 32.467 40.0617H32.4625Z" fill="white"/>
<path d="M33.5954 41.9974V41.5686C33.5455 41.5794 33.4938 41.5793 33.444 41.5681C33.3943 41.557 33.3476 41.5351 33.3075 41.5042C33.2674 41.4733 33.2347 41.434 33.212 41.3892C33.1892 41.3444 33.1769 41.2953 33.1759 41.2453C33.1748 41.1952 33.1851 41.1456 33.2061 41.1C33.227 41.0544 33.258 41.0138 33.2968 40.9814C33.3357 40.9489 33.3814 40.9252 33.4306 40.9122C33.4799 40.8991 33.5316 40.8969 33.5818 40.9057C33.6325 40.907 33.6823 40.9185 33.7282 40.9394C33.7741 40.9603 33.8151 40.9902 33.8487 41.0273C33.8824 41.0644 33.9079 41.1078 33.9236 41.1549C33.9394 41.2021 33.9452 41.2519 33.9405 41.3013V41.9974H33.5954ZM33.5773 41.1134C33.5597 41.1128 33.5421 41.1158 33.5257 41.1221C33.5092 41.1284 33.4943 41.138 33.4818 41.1502C33.4693 41.1625 33.4595 41.1771 33.4531 41.1932C33.4466 41.2093 33.4436 41.2265 33.4442 41.2438C33.4439 41.2607 33.4471 41.2775 33.4538 41.2931C33.4604 41.3088 33.4703 41.3228 33.4829 41.3345C33.4954 41.3461 33.5103 41.3551 33.5265 41.3608C33.5428 41.3665 33.5601 41.3688 33.5773 41.3675C33.5944 41.3697 33.6118 41.368 33.6282 41.3626C33.6445 41.3571 33.6594 41.3481 33.6716 41.3361C33.6838 41.3241 33.693 41.3096 33.6986 41.2936C33.7041 41.2776 33.7059 41.2606 33.7037 41.2438C33.7049 41.2269 33.7026 41.21 33.6968 41.194C33.6909 41.1781 33.6818 41.1635 33.6699 41.1513C33.658 41.139 33.6436 41.1293 33.6277 41.1228C33.6118 41.1163 33.5946 41.1131 33.5773 41.1134Z" fill="white"/>
<path d="M36.893 38.338H37.2968V39.9468C37.2968 40.36 37.0013 40.6606 36.4486 40.6606C35.8958 40.6606 35.6319 40.3932 35.6319 39.96V39.5976C35.7289 39.4916 35.8913 39.3435 36.047 39.1557C36.0182 39.1635 35.9888 39.1686 35.959 39.1711C35.8428 39.1713 35.731 39.1274 35.6469 39.0488C35.5629 38.9702 35.513 38.8628 35.5078 38.7491C35.5078 38.6318 35.5553 38.5194 35.64 38.4365C35.7246 38.3537 35.8393 38.3071 35.959 38.3071C36.0254 38.3042 36.0916 38.315 36.1534 38.3387C36.2153 38.3624 36.2714 38.3985 36.3181 38.4447C36.3648 38.4909 36.4012 38.5462 36.4248 38.607C36.4485 38.6678 36.4589 38.7327 36.4553 38.7977C36.4553 39.2043 36.2297 39.3965 36.0222 39.6396V39.9556C36.0222 40.2341 36.1621 40.3335 36.4486 40.3335C36.7351 40.3335 36.8998 40.2208 36.8998 39.949L36.893 38.338ZM35.959 38.5701C35.9368 38.5691 35.9147 38.5727 35.894 38.5806C35.8733 38.5885 35.8545 38.6005 35.8388 38.6159C35.8231 38.6313 35.8109 38.6497 35.8028 38.6699C35.7948 38.6902 35.7911 38.7119 35.7921 38.7336C35.7912 38.7556 35.7948 38.7776 35.8028 38.7982C35.8108 38.8188 35.8229 38.8376 35.8385 38.8535C35.8541 38.8694 35.8728 38.8821 35.8935 38.8907C35.9142 38.8993 35.9365 38.9038 35.959 38.9037C35.9819 38.904 36.0046 38.8998 36.0258 38.8914C36.0471 38.883 36.0663 38.8704 36.0825 38.8546C36.0987 38.8387 36.1115 38.8198 36.1201 38.7991C36.1287 38.7783 36.133 38.756 36.1327 38.7336C36.1331 38.7115 36.1288 38.6895 36.1201 38.6691C36.1114 38.6486 36.0985 38.6302 36.0822 38.6148C36.0659 38.5995 36.0465 38.5876 36.0253 38.5799C36.0042 38.5722 35.9816 38.5688 35.959 38.5701Z" fill="white"/>
<path d="M40.0946 40.6254V39.2022C40.1036 39.1278 40.0955 39.0524 40.0711 38.9814C40.0467 38.9105 40.0064 38.8457 39.9533 38.7918C39.9003 38.7378 39.8356 38.6962 39.7641 38.6697C39.6925 38.6432 39.6159 38.6326 39.5397 38.6387C39.4347 38.6383 39.3309 38.6602 39.2355 38.7029C39.1401 38.7457 39.0553 38.8082 38.9869 38.8862L39.3163 39.0453V39.2663C39.2283 39.2906 39.1719 39.3414 39.1719 39.505V40.0972C39.1719 40.4198 39.0614 40.6452 38.7207 40.6452C38.6011 40.6452 38.4863 40.5987 38.4017 40.5158C38.3171 40.4329 38.2695 40.3205 38.2695 40.2033C38.2748 40.0895 38.3246 39.9822 38.4087 39.9035C38.4927 39.8249 38.6045 39.7811 38.7207 39.7812C38.7417 39.779 38.7629 39.779 38.7839 39.7812C38.769 39.6787 38.7614 39.5753 38.7613 39.4718C38.7561 39.4078 38.7702 39.3437 38.8019 39.2876C38.8336 39.2314 38.8815 39.1856 38.9396 39.1558L38.5583 38.9857V38.789C38.6748 38.6392 38.8235 38.5165 38.9939 38.4294C39.1643 38.3423 39.3521 38.2931 39.5442 38.2852C40.1149 38.2852 40.5075 38.5503 40.5075 39.1691V40.5922L40.0946 40.6254ZM38.7162 40.0552C38.6937 40.0546 38.6713 40.0585 38.6505 40.0668C38.6296 40.075 38.6108 40.0875 38.5951 40.1033C38.5794 40.1191 38.5672 40.1379 38.5593 40.1585C38.5514 40.1791 38.548 40.2012 38.5493 40.2232C38.548 40.2451 38.5514 40.267 38.5593 40.2875C38.5672 40.3081 38.5794 40.3267 38.5952 40.3424C38.6109 40.358 38.6298 40.3702 38.6506 40.3782C38.6715 40.3862 38.6938 40.3899 38.7162 40.3889C38.7388 40.3898 38.7613 40.3862 38.7824 40.3782C38.8035 40.3702 38.8226 40.3581 38.8387 40.3425C38.8548 40.327 38.8675 40.3084 38.8759 40.2878C38.8843 40.2673 38.8883 40.2453 38.8877 40.2232C38.888 40.201 38.8837 40.1791 38.8752 40.1585C38.8667 40.138 38.8541 40.1194 38.8381 40.1037C38.8221 40.0881 38.8031 40.0757 38.7822 40.0674C38.7612 40.0591 38.7388 40.0549 38.7162 40.0552Z" fill="white"/>
<path d="M42.5904 40.6252V39.1247C42.5904 38.8065 42.4708 38.643 42.2114 38.643C42.1518 38.637 42.0916 38.6439 42.035 38.6631C41.9784 38.6824 41.9268 38.7135 41.8838 38.7544C41.8408 38.7952 41.8075 38.8448 41.7861 38.8996C41.7648 38.9544 41.7559 39.0131 41.7602 39.0717H41.3789C41.3789 38.5855 41.7421 38.3203 42.2159 38.3203C42.7641 38.3203 42.9874 38.6098 42.9874 39.1247V40.6362L42.5904 40.6252Z" fill="white"/>
<path d="M46.0902 40.6258L46.0608 40.491C45.8816 40.1023 45.6774 39.7251 45.4494 39.3618C45.2204 39.7295 45.0111 40.1086 44.8223 40.4976L44.793 40.6258H44.4636V39.4457C44.4684 39.3471 44.4797 39.249 44.4974 39.1518C44.4653 39.1572 44.4329 39.1609 44.4004 39.1629C44.2842 39.163 44.1724 39.1192 44.0883 39.0405C44.0043 38.9619 43.9544 38.8545 43.9492 38.7408C43.9492 38.6236 43.9968 38.5112 44.0814 38.4283C44.166 38.3454 44.2808 38.2988 44.4004 38.2988C44.7456 38.2988 44.8516 38.5198 44.8516 38.8469V39.5098C44.8512 39.5897 44.8452 39.6694 44.8336 39.7485L45.3592 38.7585H45.5194L46.0383 39.691C46.0265 39.6083 46.0213 39.5248 46.0225 39.4413V38.3364H46.4308V40.6236L46.0902 40.6258ZM44.4004 38.5706C44.3782 38.5697 44.3561 38.5733 44.3354 38.5812C44.3147 38.5891 44.2959 38.6011 44.2802 38.6164C44.2645 38.6318 44.2523 38.6502 44.2442 38.6705C44.2362 38.6908 44.2325 38.7124 44.2335 38.7342C44.2322 38.7563 44.2357 38.7784 44.2435 38.7991C44.2514 38.8199 44.2635 38.8388 44.2792 38.8548C44.2948 38.8708 44.3137 38.8834 44.3345 38.8919C44.3554 38.9004 44.3778 38.9047 44.4004 38.9043C44.4233 38.9046 44.446 38.9004 44.4673 38.892C44.4885 38.8835 44.5077 38.871 44.5239 38.8551C44.5401 38.8393 44.5529 38.8204 44.5615 38.7996C44.5701 38.7788 44.5744 38.7566 44.5741 38.7342C44.5742 38.7121 44.5696 38.6903 44.5608 38.67C44.552 38.6497 44.5391 38.6314 44.5229 38.6161C44.5066 38.6008 44.4874 38.5889 44.4664 38.5811C44.4453 38.5733 44.4229 38.5697 44.4004 38.5706Z" fill="white"/>
</g>
<defs>
<clipPath id="clip0_1677_20104">
<rect width="49" height="42" fill="white"/>
</clipPath>
</defs>
</svg>
